IKResults
version=1
nRows=12
nColumns=24
inDegrees=yes

Units are S.I. units (second, meters, Newtons, ...)
If the header above contains a line with 'inDegrees', this indicates whether rotational values are in degrees (yes) or radians (no).

endheader
time	pelvis_tilt	pelvis_list	pelvis_rotation	pelvis_tx	pelvis_ty	pelvis_tz	hip_flexion_r	hip_adduction_r	hip_rotation_r	knee_angle_r	ankle_angle_r	subtalar_angle_r	mtp_angle_r	hip_flexion_l	hip_adduction_l	hip_rotation_l	knee_angle_l	ankle_angle_l	subtalar_angle_l	mtp_angle_l	lumbar_extension	lumbar_bending	lumbar_rotation
      6.13000000	     -1.47833138	     -7.03693908	    -94.85032341	     -0.25148300	      0.96226771	     -0.87214656	    -26.94723324	      4.46930894	     -7.85987621	     20.23525836	     -3.88483717	     12.49360198	      0.00000000	     20.62026320	     -6.03820116	    -14.53899090	    -16.61590728	     -2.13182935	     -3.43495799	      0.00000000	    -29.88977461	      1.03765970	     10.29036979
      6.14000000	     -1.35619150	     -7.72685087	    -95.06543729	     -0.25107326	      0.96054333	     -0.85641371	    -29.25448625	      4.21727851	     -8.32990252	     21.20165121	     -3.77198868	     13.49920817	      0.00000000	     15.40568118	     -4.49250439	    -17.73385116	     -4.79336527	     -4.55325100	      0.06551729	      0.00000000	    -30.46854025	      0.78483076	     10.40041963
      6.15000000	     -2.32492650	     -8.48082040	    -95.35147528	     -0.25125301	      0.95715687	     -0.83960651	    -31.76168309	      5.09571344	     -8.62669976	     22.01639666	     -3.54374946	     14.97459250	      0.00000000	     11.16635796	     -3.89645575	    -21.93913286	      4.83096949	     -6.64906621	      5.97462014	      0.00000000	    -30.95396895	      1.57535540	     10.64778260
      6.16000000	     -3.48125062	     -8.95871935	    -95.58514454	     -0.25134681	      0.95332351	     -0.82317472	    -33.82969889	      6.13140326	     -8.68635683	     22.53780945	     -3.25637137	     16.21402063	      0.00000000	      9.45276243	     -3.90278794	    -25.38605212	     10.01875145	     -7.15254618	     11.55327418	      0.00000000	    -31.22836483	      2.62529266	     11.08275950
      6.17000000	     -4.48810202	     -9.35459600	    -95.97534755	     -0.25142550	      0.94992760	     -0.80731649	    -35.63028081	      6.82717729	     -8.40684312	     22.81958904	     -2.99506972	     17.05917311	      0.00000000	      8.58214088	     -3.94683327	    -28.39172485	     13.48337103	     -7.18021723	     16.13759942	      0.00000000	    -31.53944169	      3.46281219	     11.66964819
      6.18000000	     -5.44267272	     -9.80994536	    -96.76054631	     -0.25185814	      0.94736011	     -0.79233119	    -37.28584580	      7.10354601	     -7.49160577	     22.82174089	     -2.78716858	     17.35098537	      0.00000000	      7.91289043	     -4.10600611	    -31.23317337	     15.97458466	     -7.02434098	     19.74606469	      0.00000000	    -32.10898853	      4.02412281	     12.46329340
      6.19000000	     -6.67856474	    -10.15992260	    -98.14922749	     -0.25320151	      0.94573000	     -0.77869047	    -38.45384884	      7.06041158	     -5.11321093	     22.16972761	     -2.46042558	     16.30355772	      0.00000000	      7.41973828	     -4.80318977	    -34.18155030	     17.66597742	     -6.84969580	     22.62425553	      0.00000000	    -32.90696595	      4.59798062	     14.39928427
      6.20000000	     -8.01674502	    -10.61827678	   -100.05047929	     -0.25521366	      0.94522930	     -0.76605121	    -39.47852696	      6.69989256	     -2.13566773	     21.13217721	     -2.16578300	     14.94898535	      0.00000000	      6.78125993	     -5.82252563	    -37.32309949	     18.54118303	     -6.60968517	     25.03245953	      0.00000000	    -34.05362100	      4.80457312	     15.98771256
      6.21000000	     -7.78769089	    -10.66249229	    -98.47718449	     -0.25207313	      0.94225465	     -0.74650035	    -40.36322980	      7.01198843	     -2.93183498	     20.45683181	     -1.58086385	     14.41831907	      0.00000000	      6.60074531	     -4.71448235	    -36.33894722	     19.62467144	     -6.60046099	     25.65620881	      0.00000000	    -33.41359628	      5.57100105	     15.71338739
      6.22000000	     -7.13580125	    -10.65167939	    -96.55821264	     -0.24837669	      0.93934200	     -0.72613601	    -41.08561912	      7.23587602	     -4.57622518	     19.65385821	     -1.01126536	     14.54512632	      0.00000000	      6.33607587	     -3.24579156	    -34.87747263	     20.26996960	     -6.82278981	     26.11163663	      0.00000000	    -32.43576478	      5.72559081	     12.77206680
      6.23000000	     -7.70385636	    -10.95410037	    -97.40936761	     -0.24895410	      0.93942036	     -0.71138237	    -41.37740191	      6.65195916	     -2.11385942	     17.76974780	     -0.61185960	     12.39180886	      0.00000000	      5.51866915	     -3.84063776	    -34.86794342	     19.92500141	     -7.22538908	     25.51579261	      0.00000000	    -33.04630294	      5.69230320	     13.52290306
      6.24000000	     -8.00036667	    -11.29427642	    -97.78785738	     -0.24884417	      0.93971912	     -0.69547412	    -41.47022890	      6.15178600	     -0.24606542	     15.46893329	     -0.15204470	     10.46263259	      0.00000000	      4.45694819	     -4.16338854	    -33.75084162	     19.54473769	     -8.11164404	     24.06150074	      0.00000000	    -33.49444757	      5.58558004	     13.78904017
